<svg xmlns="http://www.w3.org/2000/svg" viewBox="0 0 16 16" fill="currentColor">
  <!-- layoutLeftFloat — a window whose side view floats over the content: a card inset from the left edge,
       touching neither the frame nor the full height. A FILLED shape on the 16 grid, like layoutLeft beside it.
       EDIT THIS FILE to change the icon — the folder is the source. -->
  <path fill-rule="evenodd" d="M2.5 2h11A1.5 1.5 0 0 1 15 3.5v9a1.5 1.5 0 0 1-1.5 1.5h-11A1.5 1.5 0 0 1 1 12.5v-9A1.5 1.5 0 0 1 2.5 2Zm0 1.2a.3.3 0 0 0-.3.3v9a.3.3 0 0 0 .3.3h11a.3.3 0 0 0 .3-.3v-9a.3.3 0 0 0-.3-.3Z"/>
  <path d="M4 4.6h3.4a.6.6 0 0 1 .6.6v5.6a.6.6 0 0 1-.6.6H4a.6.6 0 0 1-.6-.6V5.2a.6.6 0 0 1 .6-.6Z"/>
</svg>
